<svg xmlns="http://www.w3.org/2000/svg" viewBox="0 0 461.56 64.25"><defs><style>.cls-1{fill:#fff;}.cls-2{fill:#37bff0;}.cls-3{fill:#a5d2f2;}</style></defs><g id="Capa_2" data-name="Capa 2"><g id="Capa_1-2" data-name="Capa 1"><path class="cls-1" d="M16.26,2.59H66.93l-4.67,17.3H31.82l-2.07,7.7H58L53.79,43.32H25.51L20.24,63.13H0Z"/><path class="cls-2" d="M67.8,15.91H87.43l-2.5,9.51c4.41-6.4,9.85-10.55,17.46-10.2L96.86,36.06H94.78c-9.25,0-14.18,4.93-16.86,15.31L74.81,63.13H55.18Z"/><path class="cls-3" d="M98.59,42.29a27.86,27.86,0,0,1,28.28-27.5c14.87,0,23.61,9.68,23.61,22a27.86,27.86,0,0,1-28.28,27.5C107.33,64.25,98.59,54.57,98.59,42.29ZM132,37.62c0-4-2.51-6.83-6.31-6.83-4.93,0-8.56,5-8.56,10.63,0,4,2.51,6.83,6.31,6.83C128.34,48.25,132,43.24,132,37.62Z"/><path class="cls-1" d="M161.38,15.91H181l-1.56,5.88a18.68,18.68,0,0,1,14.1-7c8.65,0,13.49,5.62,13.49,14.44a30.38,30.38,0,0,1-1.13,8L199,63.13H179.37l6.31-23.52a14.36,14.36,0,0,0,.52-3.55c0-2.51-1.3-4.15-4.15-4.15-3.89,0-6,2.59-7.35,7.7l-6.32,23.52H148.75Z"/><path class="cls-3" d="M211.37,51.28a27.1,27.1,0,0,1,.95-6.57L216,31.05h-5.53l4.06-15.14H220l3.19-11.85h19.64l-3.2,11.85h10.89l-4.06,15.14h-10.9L232.9,41.16a13.7,13.7,0,0,0-.6,3.64c0,2,1.21,3,4,3a19.9,19.9,0,0,0,5.71-1l-4.24,16a39.63,39.63,0,0,1-9.94,1.39C216.73,64.17,211.37,59.93,211.37,51.28Z"/><path class="cls-2" d="M252.19,27.85h30.09L278,43.93h-30.1Z"/><path class="cls-1" d="M295.6,2.59h51.63l-4.5,16.61H311l-1.65,6.14h29.58L335,40H305.46l-1.82,6.57h32.17L331.4,63.13H279.34Z"/><path class="cls-2" d="M349.92,15.91h19.63L368,21.79a18.65,18.65,0,0,1,14.09-7c8.65,0,13.5,5.62,13.5,14.44a30.38,30.38,0,0,1-1.13,8l-6.92,25.94H367.9l6.32-23.52a14.31,14.31,0,0,0,.51-3.55c0-2.51-1.29-4.15-4.15-4.15-3.89,0-6,2.59-7.35,7.7l-6.31,23.52H337.29Z"/><path class="cls-1" d="M397.4,45.83c0-17.21,11-31,24.82-31,6.74,0,11.15,3,13.83,7.18l5.88-22h19.63L444.7,63.13H425.07l1.3-4.84a19.68,19.68,0,0,1-13.49,6C404.49,64.25,397.4,57.51,397.4,45.83Zm35.11-8.21c0-4.07-2.68-6.75-6.32-6.75-5.36,0-9.25,5.1-9.25,10.64,0,4.06,2.68,6.74,6.31,6.74C428.61,48.25,432.51,43.15,432.51,37.62Z"/></g></g></svg>